<svg width="101" height="101" viewBox="0 0 101 101" fill="none" xmlns="http://www.w3.org/2000/svg">
<g id="Group 33068">
<circle id="Ellipse 1" cx="1.40286" cy="1.40286" r="1.40286" fill="white" fill-opacity="0.3"/>
<circle id="Ellipse 51" cx="1.40286" cy="55.9551" r="1.40286" fill="white" fill-opacity="0.3"/>
<circle id="Ellipse 26" cx="55.9552" cy="1.40286" r="1.40286" fill="white" fill-opacity="0.3"/>
<circle id="Ellipse 52" cx="55.9552" cy="55.9551" r="1.40286" fill="white" fill-opacity="0.3"/>
<circle id="Ellipse 6" cx="1.40286" cy="12.3133" r="1.40286" fill="white" fill-opacity="0.3"/>
<circle id="Ellipse 53" cx="1.40286" cy="66.8658" r="1.40286" fill="white" fill-opacity="0.3"/>
<circle id="Ellipse 27" cx="55.9552" cy="12.3133" r="1.40286" fill="white" fill-opacity="0.3"/>
<circle id="Ellipse 54" cx="55.9552" cy="66.8658" r="1.40286" fill="white" fill-opacity="0.3"/>
<circle id="Ellipse 11" cx="1.40286" cy="23.2239" r="1.40286" fill="white" fill-opacity="0.3"/>
<circle id="Ellipse 55" cx="1.40286" cy="77.7762" r="1.40286" fill="white" fill-opacity="0.3"/>
<circle id="Ellipse 28" cx="55.9552" cy="23.2239" r="1.40286" fill="white" fill-opacity="0.3"/>
<circle id="Ellipse 56" cx="55.9552" cy="77.7762" r="1.40286" fill="white" fill-opacity="0.3"/>
<circle id="Ellipse 16" cx="1.40286" cy="34.1343" r="1.40286" fill="white" fill-opacity="0.3"/>
<circle id="Ellipse 57" cx="1.40286" cy="88.6866" r="1.40286" fill="white" fill-opacity="0.3"/>
<circle id="Ellipse 29" cx="55.9552" cy="34.1343" r="1.40286" fill="white" fill-opacity="0.3"/>
<circle id="Ellipse 58" cx="55.9552" cy="88.6866" r="1.40286" fill="white" fill-opacity="0.3"/>
<circle id="Ellipse 21" cx="1.40286" cy="45.0447" r="1.40286" fill="white" fill-opacity="0.3"/>
<circle id="Ellipse 59" cx="1.40286" cy="99.5972" r="1.40286" fill="white" fill-opacity="0.3"/>
<circle id="Ellipse 30" cx="55.9552" cy="45.0447" r="1.40286" fill="white" fill-opacity="0.3"/>
<circle id="Ellipse 60" cx="55.9552" cy="99.5972" r="1.40286" fill="white" fill-opacity="0.3"/>
<circle id="Ellipse 2" cx="12.3133" cy="1.40286" r="1.40286" fill="white" fill-opacity="0.3"/>
<circle id="Ellipse 61" cx="12.3133" cy="55.9551" r="1.40286" fill="white" fill-opacity="0.3"/>
<circle id="Ellipse 31" cx="66.8656" cy="1.40286" r="1.40286" fill="white" fill-opacity="0.3"/>
<circle id="Ellipse 62" cx="66.8656" cy="55.9551" r="1.40286" fill="white" fill-opacity="0.3"/>
<circle id="Ellipse 7" cx="12.3133" cy="12.3133" r="1.40286" fill="white" fill-opacity="0.3"/>
<circle id="Ellipse 63" cx="12.3133" cy="66.8658" r="1.40286" fill="white" fill-opacity="0.3"/>
<circle id="Ellipse 32" cx="66.8656" cy="12.3133" r="1.40286" fill="white" fill-opacity="0.3"/>
<circle id="Ellipse 64" cx="66.8656" cy="66.8658" r="1.40286" fill="white" fill-opacity="0.3"/>
<circle id="Ellipse 12" cx="12.3133" cy="23.2239" r="1.40286" fill="white" fill-opacity="0.3"/>
<circle id="Ellipse 65" cx="12.3133" cy="77.7762" r="1.40286" fill="white" fill-opacity="0.3"/>
<circle id="Ellipse 33" cx="66.8656" cy="23.2239" r="1.40286" fill="white" fill-opacity="0.3"/>
<circle id="Ellipse 66" cx="66.8656" cy="77.7762" r="1.40286" fill="white" fill-opacity="0.3"/>
<circle id="Ellipse 17" cx="12.3133" cy="34.1343" r="1.40286" fill="white" fill-opacity="0.3"/>
<circle id="Ellipse 67" cx="12.3133" cy="88.6866" r="1.40286" fill="white" fill-opacity="0.3"/>
<circle id="Ellipse 34" cx="66.8656" cy="34.1343" r="1.40286" fill="white" fill-opacity="0.3"/>
<circle id="Ellipse 68" cx="66.8656" cy="88.6866" r="1.40286" fill="white" fill-opacity="0.3"/>
<circle id="Ellipse 22" cx="12.3133" cy="45.0447" r="1.40286" fill="white" fill-opacity="0.3"/>
<circle id="Ellipse 69" cx="12.3133" cy="99.5972" r="1.40286" fill="white" fill-opacity="0.3"/>
<circle id="Ellipse 35" cx="66.8656" cy="45.0447" r="1.40286" fill="white" fill-opacity="0.3"/>
<circle id="Ellipse 70" cx="66.8656" cy="99.5972" r="1.40286" fill="white" fill-opacity="0.3"/>
<circle id="Ellipse 3" cx="23.2238" cy="1.40286" r="1.40286" fill="white" fill-opacity="0.3"/>
<circle id="Ellipse 71" cx="23.2238" cy="55.9551" r="1.40286" fill="white" fill-opacity="0.3"/>
<circle id="Ellipse 36" cx="77.7762" cy="1.40286" r="1.40286" fill="white" fill-opacity="0.3"/>
<circle id="Ellipse 72" cx="77.7762" cy="55.9551" r="1.40286" fill="white" fill-opacity="0.3"/>
<circle id="Ellipse 8" cx="23.2238" cy="12.3133" r="1.40286" fill="white" fill-opacity="0.3"/>
<circle id="Ellipse 73" cx="23.2238" cy="66.8658" r="1.40286" fill="white" fill-opacity="0.3"/>
<circle id="Ellipse 37" cx="77.7762" cy="12.3133" r="1.40286" fill="white" fill-opacity="0.3"/>
<circle id="Ellipse 74" cx="77.7762" cy="66.8658" r="1.40286" fill="white" fill-opacity="0.3"/>
<circle id="Ellipse 13" cx="23.2238" cy="23.2239" r="1.40286" fill="white" fill-opacity="0.3"/>
<circle id="Ellipse 75" cx="23.2238" cy="77.7762" r="1.40286" fill="white" fill-opacity="0.3"/>
<circle id="Ellipse 38" cx="77.7762" cy="23.2239" r="1.40286" fill="white" fill-opacity="0.3"/>
<circle id="Ellipse 76" cx="77.7762" cy="77.7762" r="1.40286" fill="white" fill-opacity="0.3"/>
<circle id="Ellipse 18" cx="23.2238" cy="34.1343" r="1.40286" fill="white" fill-opacity="0.3"/>
<circle id="Ellipse 77" cx="23.2238" cy="88.6866" r="1.40286" fill="white" fill-opacity="0.3"/>
<circle id="Ellipse 39" cx="77.7762" cy="34.1343" r="1.40286" fill="white" fill-opacity="0.3"/>
<circle id="Ellipse 78" cx="77.7762" cy="88.6866" r="1.40286" fill="white" fill-opacity="0.3"/>
<circle id="Ellipse 23" cx="23.2238" cy="45.0447" r="1.40286" fill="white" fill-opacity="0.3"/>
<circle id="Ellipse 79" cx="23.2238" cy="99.5972" r="1.40286" fill="white" fill-opacity="0.3"/>
<circle id="Ellipse 40" cx="77.7762" cy="45.0447" r="1.40286" fill="white" fill-opacity="0.3"/>
<circle id="Ellipse 80" cx="77.7762" cy="99.5972" r="1.40286" fill="white" fill-opacity="0.3"/>
<circle id="Ellipse 4" cx="34.1342" cy="1.40286" r="1.40286" fill="white" fill-opacity="0.3"/>
<circle id="Ellipse 81" cx="34.1342" cy="55.9551" r="1.40286" fill="white" fill-opacity="0.3"/>
<circle id="Ellipse 41" cx="88.6866" cy="1.40286" r="1.40286" fill="white" fill-opacity="0.3"/>
<circle id="Ellipse 82" cx="88.6866" cy="55.9551" r="1.40286" fill="white" fill-opacity="0.3"/>
<circle id="Ellipse 9" cx="34.1342" cy="12.3133" r="1.40286" fill="white" fill-opacity="0.3"/>
<circle id="Ellipse 83" cx="34.1342" cy="66.8658" r="1.40286" fill="white" fill-opacity="0.3"/>
<circle id="Ellipse 42" cx="88.6866" cy="12.3133" r="1.40286" fill="white" fill-opacity="0.3"/>
<circle id="Ellipse 84" cx="88.6866" cy="66.8658" r="1.40286" fill="white" fill-opacity="0.3"/>
<circle id="Ellipse 14" cx="34.1342" cy="23.2239" r="1.40286" fill="white" fill-opacity="0.3"/>
<circle id="Ellipse 85" cx="34.1342" cy="77.7762" r="1.40286" fill="white" fill-opacity="0.3"/>
<circle id="Ellipse 43" cx="88.6866" cy="23.2239" r="1.40286" fill="white" fill-opacity="0.3"/>
<circle id="Ellipse 86" cx="88.6866" cy="77.7762" r="1.40286" fill="white" fill-opacity="0.3"/>
<circle id="Ellipse 19" cx="34.1342" cy="34.1343" r="1.40286" fill="white" fill-opacity="0.3"/>
<circle id="Ellipse 87" cx="34.1342" cy="88.6866" r="1.40286" fill="white" fill-opacity="0.3"/>
<circle id="Ellipse 44" cx="88.6866" cy="34.1343" r="1.40286" fill="white" fill-opacity="0.3"/>
<circle id="Ellipse 88" cx="88.6866" cy="88.6866" r="1.40286" fill="white" fill-opacity="0.3"/>
<circle id="Ellipse 24" cx="34.1342" cy="45.0447" r="1.40286" fill="white" fill-opacity="0.3"/>
<circle id="Ellipse 89" cx="34.1342" cy="99.5972" r="1.40286" fill="white" fill-opacity="0.3"/>
<circle id="Ellipse 45" cx="88.6866" cy="45.0447" r="1.40286" fill="white" fill-opacity="0.3"/>
<circle id="Ellipse 90" cx="88.6866" cy="99.5972" r="1.40286" fill="white" fill-opacity="0.3"/>
<circle id="Ellipse 5" cx="45.0448" cy="1.40286" r="1.40286" fill="white" fill-opacity="0.3"/>
<circle id="Ellipse 91" cx="45.0448" cy="55.9551" r="1.40286" fill="white" fill-opacity="0.3"/>
<circle id="Ellipse 46" cx="99.5971" cy="1.40286" r="1.40286" fill="white" fill-opacity="0.3"/>
<circle id="Ellipse 92" cx="99.5971" cy="55.9551" r="1.40286" fill="white" fill-opacity="0.3"/>
<circle id="Ellipse 10" cx="45.0448" cy="12.3133" r="1.40286" fill="white" fill-opacity="0.3"/>
<circle id="Ellipse 93" cx="45.0448" cy="66.8658" r="1.40286" fill="white" fill-opacity="0.3"/>
<circle id="Ellipse 47" cx="99.5971" cy="12.3133" r="1.40286" fill="white" fill-opacity="0.3"/>
<circle id="Ellipse 94" cx="99.5971" cy="66.8658" r="1.40286" fill="white" fill-opacity="0.3"/>
<circle id="Ellipse 15" cx="45.0448" cy="23.2239" r="1.40286" fill="white" fill-opacity="0.3"/>
<circle id="Ellipse 95" cx="45.0448" cy="77.7762" r="1.40286" fill="white" fill-opacity="0.3"/>
<circle id="Ellipse 48" cx="99.5971" cy="23.2239" r="1.40286" fill="white" fill-opacity="0.3"/>
<circle id="Ellipse 96" cx="99.5971" cy="77.7762" r="1.40286" fill="white" fill-opacity="0.3"/>
<circle id="Ellipse 20" cx="45.0448" cy="34.1343" r="1.40286" fill="white" fill-opacity="0.3"/>
<circle id="Ellipse 97" cx="45.0448" cy="88.6866" r="1.40286" fill="white" fill-opacity="0.3"/>
<circle id="Ellipse 49" cx="99.5971" cy="34.1343" r="1.40286" fill="white" fill-opacity="0.3"/>
<circle id="Ellipse 98" cx="99.5971" cy="88.6866" r="1.40286" fill="white" fill-opacity="0.3"/>
<circle id="Ellipse 25" cx="45.0448" cy="45.0447" r="1.40286" fill="white" fill-opacity="0.3"/>
<circle id="Ellipse 99" cx="45.0448" cy="99.5972" r="1.40286" fill="white" fill-opacity="0.3"/>
<circle id="Ellipse 50" cx="99.5971" cy="45.0447" r="1.40286" fill="white" fill-opacity="0.3"/>
<circle id="Ellipse 100" cx="99.5971" cy="99.5972" r="1.40286" fill="white" fill-opacity="0.3"/>
</g>
</svg>
